<?xml version="1.0" encoding="UTF-8"?>
<svg viewBox="0 0 1024 1024" xmlns="http://www.w3.org/2000/svg">
  <path d="M402.2 292.7 209.9 485c-15 15-15 39.2 0 54.2l192.3 192.3c17.1 17.1 46.3 5 46.3-19.2v-77.6L324.1 510.4l124.4-124.3v-74.2c0-24.2-29.2-36.3-46.3-19.2z"/>
  <path d="M621.8 292.7c-17.1-17.1-46.3-5-46.3 19.2v74.2l124.4 124.3-124.4 124.3v77.6c0 24.2 29.2 36.3 46.3 19.2L814.1 539.2c15-15 15-39.2 0-54.2L621.8 292.7z"/>
  <path d="M549.6 190.5c-25.8-7.2-52.6 7.9-59.8 33.7L370.5 799.8c-7.2 25.8 7.9 52.6 33.7 59.8s52.6-7.9 59.8-33.7l119.3-575.6c7.2-25.8-7.9-52.6-33.7-59.8z"/>
</svg>
