<?xml version="1.0" encoding="UTF-8"?>
<svg viewBox="0 0 1024 1024" xmlns="http://www.w3.org/2000/svg">
  <path d="M512 128c148.6 0 281.1 69.8 366.4 178.4 16.4 20.9 12.8 51.1-8.1 67.5s-51.1 12.8-67.5-8.1C735 279.4 630.2 224 512 224S289 279.4 221.2 365.8c-16.4 20.9-46.6 24.5-67.5 8.1s-24.5-46.6-8.1-67.5C230.9 197.8 363.4 128 512 128z"/>
  <path d="M512 320c88.1 0 166.7 41.3 217.3 105.6 16.4 20.9 12.8 51.1-8.1 67.5s-51.1 12.8-67.5-8.1C620.7 443.1 570 416 512 416s-108.7 27.1-141.7 69c-16.4 20.9-46.6 24.5-67.5 8.1s-24.5-46.6-8.1-67.5C345.3 361.3 423.9 320 512 320z"/>
  <path d="M512 512c44.2 0 80 35.8 80 80s-35.8 80-80 80-80-35.8-80-80 35.8-80 80-80zm-176 256h352c26.5 0 48 21.5 48 48s-21.5 48-48 48H336c-26.5 0-48-21.5-48-48s21.5-48 48-48z"/>
</svg>
