<?xml version="1.0" encoding="UTF-8"?>
<svg viewBox="0 0 1024 1024" xmlns="http://www.w3.org/2000/svg">
  <path d="M192 160h640c53 0 96 43 96 96v384c0 53-43 96-96 96H592v96h96c26.5 0 48 21.5 48 48s-21.5 48-48 48H336c-26.5 0-48-21.5-48-48s21.5-48 48-48h96v-96H192c-53 0-96-43-96-96V256c0-53 43-96 96-96zm0 96v384h640V256H192z"/>
  <path d="M352 544c-17.7 0-32-14.3-32-32v-64c0-17.7 14.3-32 32-32s32 14.3 32 32v64c0 17.7-14.3 32-32 32zm160 0c-17.7 0-32-14.3-32-32V352c0-17.7 14.3-32 32-32s32 14.3 32 32v160c0 17.7-14.3 32-32 32zm160 0c-17.7 0-32-14.3-32-32v-96c0-17.7 14.3-32 32-32s32 14.3 32 32v96c0 17.7-14.3 32-32 32z"/>
</svg>
